<?xml version="1.0"?>
<svg xmlns="http://www.w3.org/2000/svg" xmlns:xlink="http://www.w3.org/1999/xlink" version="1.1" id="Capa_1" x="0px" y="0px" viewBox="0 0 443.044 443.044" style="enable-background:new 0 0 443.044 443.044;" xml:space="preserve" width="512px" height="512px" class=""><g><g>
	<path d="M393.252,49.792C361.143,17.684,318.452,0,273.044,0c-93.738,0.001-170,76.263-170,170   c0,42.059,15.181,81.779,42.933,112.925l-28.496,28.496l-7.071-7.071c-1.875-1.875-4.419-2.929-7.071-2.929   s-5.196,1.054-7.071,2.929L2.929,397.688c-3.905,3.905-3.905,10.237,0,14.143l28.284,28.284c1.953,1.952,4.512,2.929,7.071,2.929   s5.119-0.977,7.071-2.929l93.338-93.338c3.905-3.905,3.905-10.237,0-14.143l-7.071-7.07l28.496-28.496   C191.264,324.82,230.985,340,273.044,340c93.737-0.001,169.999-76.263,170-170C443.043,124.591,425.36,81.901,393.252,49.792z    M38.284,418.901l-14.142-14.142l79.196-79.195l7.064,7.063c0.002,0.002,0.004,0.005,0.007,0.008s0.005,0.004,0.008,0.007   l7.064,7.063L38.284,418.901z M273.044,320c-40.067,0-77.735-15.603-106.066-43.935c-28.331-28.33-43.934-65.998-43.935-106.065   c0.001-82.709,67.291-149.999,150-150c40.066,0,77.735,15.603,106.066,43.935c28.331,28.33,43.934,65.999,43.934,106.065   C423.043,252.709,355.753,319.999,273.044,320z" data-original="#000000" class="active-path" data-old_color="#000000" fill="#7B2CD6"/>
	<path d="M273.044,40c-71.682,0-130,58.317-130,130s58.318,130,130,130s130-58.317,130-130S344.726,40,273.044,40z M273.044,280   c-60.654,0-110-49.346-110-110s49.346-110,110-110s110,49.346,110,110S333.698,280,273.044,280z" data-original="#000000" class="active-path" data-old_color="#000000" fill="#7B2CD6"/>
	<path d="M322.515,106.386l-61.92,61.92c-3.905,3.905-3.905,10.237,0,14.143c1.953,1.952,4.512,2.929,7.071,2.929   s5.119-0.977,7.071-2.929l61.92-61.92c3.905-3.905,3.905-10.237,0-14.143C332.752,102.482,326.42,102.482,322.515,106.386z" data-original="#000000" class="active-path" data-old_color="#000000" fill="#7B2CD6"/>
	<path d="M236.474,192.426l-27.044,27.045c-3.905,3.905-3.905,10.237,0,14.143c1.953,1.952,4.512,2.929,7.071,2.929   s5.119-0.977,7.071-2.929l27.044-27.045c3.905-3.905,3.905-10.237,0-14.143C246.711,188.522,240.38,188.522,236.474,192.426z" data-original="#000000" class="active-path" data-old_color="#000000" fill="#7B2CD6"/>
	<path d="M288.918,83.415c-3.905-3.904-10.237-3.904-14.143,0l-88.316,88.316c-3.905,3.905-3.905,10.237,0,14.143   c1.953,1.952,4.512,2.929,7.071,2.929s5.119-0.977,7.071-2.929l88.316-88.316C292.823,93.653,292.823,87.321,288.918,83.415z" data-original="#000000" class="active-path" data-old_color="#000000" fill="#7B2CD6"/>
</g></g> </svg>
